<?xml version="1.0" encoding="utf-8"?>
<!-- Generator: Adobe Illustrator 19.1.0, SVG Export Plug-In . SVG Version: 6.00 Build 0)  -->
<svg version="1.1" xmlns="http://www.w3.org/2000/svg" xmlns:xlink="http://www.w3.org/1999/xlink" x="0px" y="0px"
	 viewBox="0 0 37 37" style="enable-background:new 0 0 37 37;" xml:space="preserve">
<style type="text/css">
	.st0{display:none;}
	.st1{display:inline;fill:#517CBE;}
	.st2{display:inline;fill:#FFFFFF;}
	.st3{display:inline;fill:#04C3F3;}
	.st4{display:inline;fill:#F1605C;}
	.st5{display:inline;fill:#A2D17E;}
	.st6{display:inline;}
	.st7{display:none;fill:#67BD55;}
	.st8{fill:#FFFFFF;}
	.st9{fill:#4A494A;}
</style>
<g id="Facebbok" class="st0">
	<path class="st1" d="M19,35.6c9.4,0,17-7.6,17-17c0-9.4-7.6-17-17-17c-9.4,0-17,7.6-17,17C2,28,9.6,35.6,19,35.6"/>
	<path class="st2" d="M14.9,15.7h1.8V14c0-0.8,0-1.9,0.6-2.6c0.6-0.8,1.4-1.3,2.7-1.3c2.2,0,3.2,0.3,3.2,0.3L22.7,13
		c0,0-0.7-0.2-1.4-0.2c-0.7,0-1.3,0.2-1.3,0.9v2h2.8l-0.2,2.5h-2.6v8.8h-3.3v-8.8h-1.8V15.7z"/>
</g>
<g id="twitter" class="st0">
	<path class="st3" d="M19,35.6c9.4,0,17-7.6,17-17c0-9.4-7.6-17-17-17c-9.4,0-17,7.6-17,17C2,28,9.6,35.6,19,35.6"/>
	<path class="st2" d="M27.5,13.3c-0.6,0.3-1.3,0.5-2,0.6c0.7-0.4,1.3-1.1,1.5-1.9c-0.7,0.4-1.4,0.7-2.2,0.8
		c-0.6-0.7-1.5-1.1-2.6-1.1c-1.9,0-3.5,1.6-3.5,3.5c0,0.3,0,0.5,0.1,0.8c-2.9-0.1-5.5-1.5-7.2-3.7c-0.3,0.5-0.5,1.1-0.5,1.8
		c0,1.2,0.6,2.3,1.6,2.9c-0.6,0-1.1-0.2-1.6-0.4v0c0,1.7,1.2,3.1,2.8,3.4c-0.3,0.1-0.6,0.1-0.9,0.1c-0.2,0-0.4,0-0.7-0.1
		c0.4,1.4,1.7,2.4,3.3,2.4c-1.2,0.9-2.7,1.5-4.3,1.5c-0.3,0-0.6,0-0.8,0c1.5,1,3.4,1.6,5.4,1.6c6.4,0,9.9-5.3,9.9-9.9
		c0-0.2,0-0.3,0-0.5C26.5,14.6,27,14,27.5,13.3"/>
</g>
<g id="Pintrest" class="st0">
	<path class="st4" d="M19,35.5c9.4,0,17-7.6,17-17c0-9.4-7.6-17-17-17c-9.4,0-17,7.6-17,17C2,27.9,9.6,35.5,19,35.5"/>
	<path class="st2" d="M19,10.4c-4.7,0-8.5,3.8-8.5,8.5c0,3.5,2.1,6.5,5.1,7.8c0-0.6,0-1.3,0.1-2c0.2-0.7,1.1-4.6,1.1-4.6
		s-0.3-0.5-0.3-1.3c0-1.3,0.7-2.2,1.6-2.2c0.8,0,1.1,0.6,1.1,1.3c0,0.8-0.5,1.9-0.8,3c-0.2,0.9,0.5,1.6,1.3,1.6
		c1.6,0,2.7-2.1,2.7-4.5c0-1.9-1.3-3.3-3.5-3.3c-2.6,0-4.2,1.9-4.2,4.1c0,0.7,0.2,1.3,0.6,1.7c0.2,0.2,0.2,0.3,0.1,0.5
		c0,0.2-0.1,0.5-0.2,0.7c-0.1,0.2-0.2,0.3-0.4,0.2c-1.2-0.5-1.7-1.8-1.7-3.2c0-2.4,2-5.3,6.1-5.3c3.2,0,5.4,2.4,5.4,4.9
		c0,3.3-1.9,5.8-4.6,5.8c-0.9,0-1.8-0.5-2.1-1.1c0,0-0.5,2-0.6,2.3c-0.2,0.7-0.5,1.3-0.9,1.8c0.8,0.2,1.6,0.3,2.4,0.3
		c4.7,0,8.5-3.8,8.5-8.5C27.5,14.3,23.7,10.4,19,10.4"/>
</g>
<g id="Layer_4" class="st0">
	<path class="st5" d="M18.5,35.5c9.4,0,17-7.6,17-17c0-9.4-7.6-17-17-17c-9.4,0-17,7.6-17,17C1.5,27.9,9.1,35.5,18.5,35.5"/>
	<g id="g5124" class="st6">
		<path id="rect2987" class="st7" d="M-171.5-237.5h384c35.3,0,64,28.7,64,64v384c0,35.3-28.7,64-64,64h-384c-35.3,0-64-28.7-64-64
			v-384C-235.5-208.8-206.8-237.5-171.5-237.5z"/>
		<path id="WhatsApp_2_" class="st8" d="M31.1,17.5c0,6.5-5.3,11.8-11.9,11.8c-2.1,0-4-0.5-5.8-1.5l-6.6,2.1L9,23.6
			c-1.1-1.8-1.7-3.9-1.7-6.1c0-6.5,5.3-11.8,11.9-11.8C25.8,5.7,31.1,11,31.1,17.5z M19.2,7.6c-5.5,0-10,4.5-10,9.9
			c0,2.2,0.7,4.2,1.9,5.8L9.9,27l3.8-1.2c1.6,1,3.5,1.6,5.5,1.6c5.5,0,10-4.5,10-9.9S24.7,7.6,19.2,7.6z M25.2,20.2
			c-0.1-0.1-0.3-0.2-0.6-0.3c-0.3-0.1-1.7-0.8-2-0.9c-0.3-0.1-0.5-0.1-0.7,0.1c-0.2,0.3-0.8,0.9-0.9,1.1c-0.2,0.2-0.3,0.2-0.6,0.1
			c-0.3-0.1-1.2-0.5-2.3-1.4c-0.9-0.8-1.5-1.7-1.6-2c-0.2-0.3,0-0.4,0.1-0.6c0.1-0.1,0.3-0.3,0.4-0.5c0.1-0.2,0.2-0.3,0.3-0.5
			c0.1-0.2,0-0.4,0-0.5c-0.1-0.1-0.7-1.6-0.9-2.1c-0.2-0.6-0.5-0.5-0.7-0.5c-0.2,0-0.4,0-0.6,0c-0.2,0-0.5,0.1-0.8,0.4
			c-0.3,0.3-1,1-1,2.4c0,1.4,1,2.8,1.2,3c0.1,0.2,2,3.2,5,4.4c3,1.2,3,0.8,3.5,0.7c0.5,0,1.7-0.7,2-1.4
			C25.3,20.9,25.3,20.3,25.2,20.2L25.2,20.2z"/>
	</g>
</g>
<g id="Layer_4_copy">
	<path class="st9" d="M18.5,35.5c9.4,0,17-7.6,17-17c0-9.4-7.6-17-17-17c-9.4,0-17,7.6-17,17C1.5,27.9,9.1,35.5,18.5,35.5"/>
	<g id="Forma_1">
		<g>
			<path class="st8" d="M9.2,15c0.3,0.2,1.2,0.8,2.6,1.8s2.6,1.8,3.3,2.3c0.1,0.1,0.3,0.2,0.5,0.4c0.3,0.2,0.5,0.4,0.7,0.5
				c0.2,0.1,0.4,0.3,0.7,0.4c0.3,0.2,0.5,0.3,0.7,0.3c0.2,0.1,0.4,0.1,0.6,0.1h0c0.2,0,0.4,0,0.6-0.1c0.2-0.1,0.5-0.2,0.7-0.3
				c0.3-0.2,0.5-0.3,0.7-0.4c0.2-0.1,0.4-0.3,0.7-0.5c0.3-0.2,0.5-0.3,0.5-0.4c0.8-0.5,2.8-1.9,6-4.2c0.6-0.4,1.1-1,1.6-1.6
				c0.4-0.6,0.6-1.3,0.6-1.9c0-0.6-0.2-1-0.6-1.4c-0.4-0.4-0.9-0.6-1.4-0.6H9.1c-0.7,0-1.2,0.2-1.5,0.7c-0.4,0.4-0.5,1-0.5,1.7
				c0,0.5,0.2,1.1,0.7,1.7C8.2,14.2,8.7,14.7,9.2,15z M22.3,20.8c-0.5,0.4-0.9,0.6-1.2,0.8c-0.3,0.2-0.7,0.4-1.2,0.6
				c-0.5,0.2-1,0.3-1.4,0.3h0c-0.4,0-0.9-0.1-1.4-0.3c-0.5-0.2-0.9-0.4-1.2-0.6c-0.3-0.2-0.7-0.5-1.2-0.8c-1.2-0.8-3.3-2.3-6.4-4.4
				c-0.5-0.3-0.9-0.7-1.3-1.1v10.2c0,0.6,0.2,1,0.6,1.4c0.4,0.4,0.9,0.6,1.4,0.6h18.8c0.6,0,1-0.2,1.4-0.6c0.4-0.4,0.6-0.9,0.6-1.4
				V15.3c-0.4,0.4-0.8,0.8-1.3,1.1C25.9,18.3,23.8,19.8,22.3,20.8z"/>
		</g>
	</g>
</g>
</svg>
