<svg xmlns="http://www.w3.org/2000/svg" width="512" height="512" version="1.1" xml:space="preserve">
    <path fill="#0083be" fill-opacity="1" fill-rule="nonzero" stroke="none" d="M0 0h512v512H0z"/>
    <g fill="#fff">
        <path d="M61.053 178.668h85.76v257.963h-85.76zM104.513 54.28C75.17 54.28 56 73.572 56 98.855c0 24.752 18.588 44.574 47.377 44.574h.555c29.902 0 48.515-19.822 48.515-44.574-.554-25.283-18.611-44.573-47.934-44.573zM357.28 172.602c-45.491 0-65.867 25.018-77.277 42.59v-36.524h-85.738c1.137 24.197 0 257.963 0 257.963H280V292.566c0-7.712.555-15.42 2.828-20.931 6.188-15.4 20.305-31.353 43.993-31.353 31.012 0 43.436 23.665 43.436 58.328v138.02H456V288.7c0-79.237-42.305-116.098-98.72-116.098z"/>
    </g>
</svg>
