<svg xmlns="http://www.w3.org/2000/svg" x="0" y="0" version="1.1" viewBox="66.794 26 576 598" xml:space="preserve">
    <g xmlns:svg="http://www.w3.org/2000/svg">
        <path fill="#6C7EB7" d="M130.139 162.499c64.064-108.513 381.398-110.513 449.311 0v242.918c-5 121.303-224.659 217.508-224.659 217.508S135.139 526.72 130.139 405.417V162.499z"/>
        <path fill="#899BD3" d="M160.901 182.153c25.575-49.212 109.632-71.399 193.716-72.058.384-.003.021 478.223.021 478.223s-193.293-84.66-193.736-192.36V182.153z"/>
        <path fill="#788AC8" d="M548.683 182.153c-25.575-49.212-109.632-71.399-193.716-72.058-.384-.003-.021 478.223-.021 478.223s193.293-84.66 193.736-192.36V182.153z"/>
        <g fill="#6C7EB7">
            <path d="M257.688 170.727l65.638-23.039-3.6 16.559-44.639 15.479 38.039 15.479-3.48 16.56-55.798-23.039 3.84-17.999zM370.967 122.729h19.439l-45.599 89.036h-19.439l45.599-89.036zM390.646 195.205l44.758-15.479-38.158-15.479 3.6-16.559 55.798 23.039-3.84 17.999-65.637 23.039 3.479-16.56z"/>
        </g>
        <path stroke="#FFF" stroke-width="3.332" d="M300.501 384.193l26.49-134.103h31.456l-6.623 34.767h29.801c26.49 1.656 36.423 14.9 33.112 31.457l-11.589 67.879h-33.112l11.589-61.258c1.656-8.277 1.656-13.244-9.934-13.244h-24.834l-14.899 74.502h-31.457z" opacity=".8" stroke-linejoin="round"/>
        <g stroke="#FFF" stroke-width="3.332" opacity=".8">
            <path d="M408.135 418.96l23.158-134.103h61.257c26.489 1.656 39.734 14.9 39.734 38.078 0 39.736-31.457 62.913-59.602 61.258h-27.395l-5.695 34.767h-31.457z" stroke-linejoin="round"/>
            <path fill="#788AC8" d="M449.505 359.359l8.277-49.668h21.522c11.59 0 19.867 4.967 19.867 14.9-1.655 28.146-14.9 33.112-29.8 34.768h-19.866z"/>
        </g>
        <g stroke="#FFF" stroke-width="3.332" opacity=".8">
            <path d="M178.228 418.96l23.157-134.103h61.257c26.489 1.656 39.734 14.9 39.734 38.078 0 39.736-31.457 62.913-59.602 61.258H215.38l-5.696 34.767h-31.456z" stroke-linejoin="round"/>
            <path fill="#899BD3" d="M219.597 359.359l8.278-49.668h21.521c11.59 0 19.868 4.967 19.868 14.9-1.655 28.146-14.901 33.112-29.801 34.768h-19.866z"/>
        </g>
    </g>
</svg>
