<?xml version="1.0" encoding="UTF-8"?>
<!DOCTYPE svg PUBLIC "-//W3C//DTD SVG 1.1//EN" "http://www.w3.org/Graphics/SVG/1.1/DTD/svg11.dtd">
<!-- Creator: CorelDRAW X6 -->
<svg xmlns="http://www.w3.org/2000/svg" xml:space="preserve" width="2.13888in" height="2.01388in" version="1.1" style="shape-rendering:geometricPrecision; text-rendering:geometricPrecision; image-rendering:optimizeQuality; fill-rule:evenodd; clip-rule:evenodd"
viewBox="0 0 2139 2014"
 xmlns:xlink="http://www.w3.org/1999/xlink">
 <defs>
  <style type="text/css">
   <![CDATA[
    .fil0 {fill:#333333}
   ]]>
  </style>
 </defs>
 <g id="__x0023_Layer_x0020_1">
  <metadata id="CorelCorpID_0Corel-Layer"/>
  <path class="fil0" d="M860 974c28,-43 38,-91 28,-143 -12,-59 -38,-104 -80,-135 -44,-34 -96,-45 -155,-33 -56,11 -97,39 -125,84 -28,45 -35,99 -23,160l7 33 77 29 -12 -63c-10,-50 -6,-91 13,-123 17,-30 43,-48 78,-55 37,-7 70,-1 98,19 28,20 46,49 53,88 16,79 -13,124 -72,147 -109,32 -201,-8 -339,-85 11,-9 68,-52 68,-52l-246 -11 10 11 142 189 2 -93c174,130 381,182 478,33zm-236 542l0 0 68 -13 -85 -434 -76 -25 93 472zm473 -547l0 0c10,-2 18,-5 25,-10 5,-3 10,-8 17,-15l-7 -36c-4,8 -10,15 -16,21 -6,5 -13,9 -22,10 -16,3 -30,0 -42,-9 -13,-9 -20,-22 -23,-37 -3,-16 -1,-31 7,-44 8,-13 20,-22 36,-25 15,-3 28,-1 40,5 13,7 21,17 24,32l18 93 24 -5 6 -1 108 -21c15,-3 27,-9 35,-19 8,-10 10,-22 7,-37 -3,-17 -15,-28 -35,-34 -7,-2 -25,-5 -53,-7 -19,-2 -29,-7 -31,-14 -1,-5 0,-9 2,-12 2,-3 7,-5 15,-6l94 -18 -6 -29 -89 17c-18,4 -31,10 -40,20 -8,10 -11,22 -8,36 3,16 15,27 35,33 6,2 24,4 53,8 19,2 29,7 31,15 2,11 -3,17 -17,20l-108 21 -12 -62c-5,-24 -16,-42 -34,-53 -18,-11 -39,-14 -65,-9 -26,5 -45,18 -58,37 -12,18 -16,40 -11,64 5,25 17,44 35,58 19,14 40,19 63,14zm-162 -224l0 0 -30 6 48 243 30 -6 -48 -243zm473 531l0 0c-10,16 -27,26 -49,31 -22,4 -41,0 -58,-12 -17,-12 -28,-30 -32,-53 -5,-24 -1,-44 10,-62 11,-17 27,-28 49,-32 12,-2 22,-3 30,0 8,2 17,6 26,13l-100 85 24 30 137 -116c-16,-21 -34,-36 -55,-45 -21,-9 -44,-11 -70,-6 -33,6 -58,23 -77,50 -19,27 -25,58 -18,92 7,35 24,61 52,79 28,18 58,24 90,17 33,-6 59,-22 78,-47 19,-25 26,-52 20,-83l-43 3c0,24 -5,43 -13,56zm505 -380l0 0 -7 -36 -760 149 -23 4 -46 9 47 240c5,24 2,45 -8,62 -10,17 -25,27 -45,31 -23,5 -43,1 -58,-11 -15,-12 -26,-34 -32,-65l-45 -229 -68 13 45 229c6,31 4,55 -6,73 -10,17 -27,28 -50,32 -20,4 -38,0 -53,-12 -15,-12 -25,-30 -29,-54l-47 -240 -68 13 50 256c7,35 26,63 56,84 31,20 65,27 103,19 22,-4 42,-13 60,-26 18,-13 31,-30 39,-49 16,16 35,27 56,31 21,5 42,5 65,1 39,-8 68,-26 89,-56 20,-30 27,-63 20,-99l-43 -220 299 -59 40 205c7,38 24,66 50,85 26,19 56,25 89,19 36,-7 63,-25 80,-54 16,-28 21,-59 14,-94 -6,-32 -23,-57 -49,-74 -26,-18 -54,-24 -83,-18 -11,2 -22,6 -33,10 -10,5 -20,11 -29,18l9 44c8,-8 17,-15 26,-21 9,-5 18,-9 28,-11 23,-4 42,-1 59,11 17,12 27,29 32,53 5,23 1,44 -10,62 -11,18 -28,29 -50,33 -21,4 -40,0 -56,-13 -18,-14 -29,-36 -35,-66l-39 -197 419 -82zm-109 -65l0 0c10,-2 19,-5 25,-10 5,-3 10,-8 17,-15l-7 -36c-4,9 -10,16 -16,21 -6,5 -13,9 -22,10 -15,3 -29,0 -42,-9 -13,-9 -20,-22 -23,-37 -3,-16 -1,-31 7,-44 8,-13 20,-22 36,-25 15,-3 28,-1 39,5 13,7 21,17 24,32l18 94 30 -6 -18 -91c-5,-24 -16,-42 -34,-53 -18,-11 -39,-14 -65,-9 -26,5 -45,17 -58,37 -12,18 -16,40 -11,64 5,25 17,44 35,58 19,14 40,19 63,14zm-210 -41l0 0 34 -7c8,-2 15,0 21,4 6,4 10,11 12,21l9 45 30 -6 -10 -49c-3,-14 -8,-25 -16,-32 -8,-7 -18,-10 -32,-11 4,-2 8,-7 12,-15 2,-4 5,-11 8,-21l14 -42 -34 7 -19 54c-3,9 -11,15 -23,18l-13 3 -54 -276 -30 6 75 380 30 -6 -15 -75zm-118 -91l0 0c6,-1 10,-4 13,-8 2,-4 3,-9 2,-14 -1,-5 -3,-9 -8,-12 -4,-3 -9,-4 -14,-3 -6,1 -10,4 -12,8 -3,4 -3,9 -2,14 1,5 3,9 8,12 4,3 9,4 14,3zm21 188l0 0 30 -6 -33 -166 -30 6 33 166zm-78 15l0 0 40 -8 -6 -29 -37 7c-8,2 -14,1 -18,-1 -4,-2 -7,-8 -9,-15l-17 -87 59 -12 -6 -29 -59 12 -8 -43 -30 6 30 155c3,17 10,29 21,37 10,8 23,10 39,7zm-1307 98l0 0c0,-530 430,-960 960,-960 530,0 960,430 960,960 0,530 -430,960 -960,960 -530,0 -960,-430 -960,-960z"/>
 </g>
</svg>
