<?xml version="1.0" standalone="no"?>
<!DOCTYPE svg PUBLIC "-//W3C//DTD SVG 20010904//EN"
 "http://www.w3.org/TR/2001/REC-SVG-20010904/DTD/svg10.dtd">
<svg version="1.0" xmlns="http://www.w3.org/2000/svg"
 width="643.000000pt" height="643.000000pt" viewBox="0 0 643.000000 643.000000"
 preserveAspectRatio="xMidYMid meet">
<metadata>
Created by potrace 1.11, written by Peter Selinger 2001-2013
</metadata>
<g transform="translate(0.000000,643.000000) scale(0.100000,-0.100000)"
fill="#000000" stroke="none">
<path d="M2736 6249 c-492 -48 -965 -213 -1370 -479 -181 -119 -317 -231 -476
-390 -468 -467 -760 -1051 -861 -1720 -20 -134 -24 -192 -23 -425 0 -203 4
-301 18 -395 80 -572 293 -1075 637 -1512 104 -132 376 -403 499 -498 390
-301 826 -502 1290 -594 404 -81 861 -72 1270 25 364 86 645 210 1021 451 10
7 264 -14 833 -71 449 -45 825 -81 835 -79 15 2 -48 121 -339 638 l-357 635
27 55 c15 30 50 111 78 180 387 957 257 2064 -343 2910 -467 658 -1181 1107
-1970 1239 -238 40 -542 52 -769 30z m1679 -1910 l80 -410 29 5 c55 11 71 31
105 125 20 57 39 92 49 95 38 10 82 17 82 13 0 -15 -64 -185 -76 -202 -13 -18
-11 -20 28 -35 22 -8 50 -27 61 -41 16 -22 63 -206 54 -215 -1 -2 -21 -7 -43
-12 l-41 -9 -13 71 c-22 127 -48 151 -141 134 -30 -5 -59 -11 -65 -13 -8 -2
-5 -36 11 -114 12 -61 20 -113 16 -115 -3 -2 -23 -6 -43 -10 -33 -6 -38 -4
-43 16 -12 53 -215 1094 -215 1105 0 12 20 20 60 22 l25 1 80 -411z m812 -116
c44 -21 83 -61 103 -108 20 -45 76 -323 67 -331 -3 -3 -23 -8 -44 -11 l-39 -5
-28 152 c-23 124 -33 157 -54 182 -49 58 -124 73 -198 39 -73 -33 -107 -112
-90 -206 9 -48 57 -100 112 -121 38 -15 51 -15 87 -4 23 7 56 27 74 46 l31 34
11 -48 c8 -39 7 -50 -7 -66 -50 -56 -179 -74 -259 -35 -95 46 -148 147 -141
273 3 59 9 81 31 114 67 102 231 147 344 95z m-3222 -21 c77 -28 184 -101 236
-161 55 -64 125 -210 143 -303 44 -215 -6 -389 -154 -539 -127 -130 -241 -174
-445 -173 -109 0 -148 5 -239 28 -193 49 -384 139 -580 273 l-91 62 -3 -140
-3 -141 -205 274 c-114 150 -218 286 -232 301 l-27 28 40 -5 c22 -3 164 -10
315 -16 151 -6 299 -13 328 -16 l53 -6 -95 -71 c-52 -40 -95 -75 -95 -78 -1
-4 50 -33 111 -65 317 -166 493 -224 676 -224 360 1 526 208 428 532 -48 162
-188 269 -351 270 -225 2 -376 -158 -375 -397 1 -38 11 -126 25 -195 13 -69
22 -127 20 -129 -3 -2 -53 14 -112 37 l-108 40 -17 88 c-48 249 0 442 147 590
119 120 244 166 440 160 82 -2 125 -8 170 -24z m2183 6 c7 -7 12 -24 12 -38 0
-35 -17 -50 -57 -50 -26 0 -35 5 -43 25 -10 26 -4 55 14 67 17 12 61 9 74 -4z
m-363 -172 c7 -42 10 -47 29 -42 81 19 148 28 155 20 5 -5 11 -23 14 -41 7
-34 8 -34 -126 -58 -20 -4 -39 -10 -41 -14 -9 -14 52 -284 68 -299 14 -14 24
-15 88 -4 39 7 75 9 78 5 4 -5 10 -22 13 -40 7 -37 7 -37 -94 -54 -67 -11 -78
-10 -112 6 -20 9 -45 31 -56 49 -12 19 -37 123 -66 266 -25 129 -48 243 -51
252 -4 13 5 19 38 25 49 10 52 7 63 -71z m434 -198 c24 -123 45 -233 48 -245
4 -18 0 -23 -24 -28 -15 -4 -35 -9 -44 -11 -12 -3 -23 38 -62 238 -26 134 -47
246 -47 250 0 7 29 14 65 17 19 1 24 -16 64 -221z m-1653 -225 c47 -240 67
-360 60 -364 -6 -3 -25 -9 -43 -12 -26 -5 -32 -3 -36 16 -9 34 -137 690 -137
698 0 8 28 15 66 18 19 1 25 -23 90 -356z m1090 311 c3 -19 3 -39 -2 -43 -5
-5 -73 -21 -152 -36 -79 -15 -150 -34 -158 -42 -41 -42 4 -70 140 -88 160 -21
206 -55 206 -150 0 -62 -20 -93 -77 -118 -35 -15 -453 -100 -460 -93 -2 1 -16
69 -32 150 -31 156 -44 185 -94 217 -45 28 -139 23 -186 -10 -62 -45 -86 -135
-56 -209 52 -123 198 -153 274 -56 12 15 23 25 25 23 2 -2 7 -25 11 -50 6 -43
5 -47 -24 -72 -82 -68 -220 -59 -304 21 -66 62 -102 190 -78 278 18 66 65 122
127 151 106 48 222 41 290 -19 49 -44 69 -87 94 -213 12 -60 23 -111 24 -112
6 -7 350 68 362 78 8 6 14 22 14 36 0 32 -39 48 -160 63 -154 20 -208 63 -197
157 5 48 26 77 71 100 23 12 272 67 323 72 7 1 15 -15 19 -35z m1763 -341 c5
-27 7 -51 3 -54 -4 -4 -277 -59 -607 -123 -330 -64 -609 -120 -621 -124 -21
-7 -20 -10 41 -322 35 -174 73 -339 85 -368 36 -84 126 -152 201 -152 39 0
123 34 156 63 50 44 73 98 73 177 0 107 -55 198 -142 234 -75 32 -178 13 -251
-45 -21 -17 -40 -29 -41 -28 -2 2 -8 31 -15 64 -13 69 -13 70 79 114 48 22 68
26 150 26 85 0 101 -3 153 -29 109 -55 173 -151 186 -275 22 -222 -86 -376
-291 -411 -80 -14 -162 -1 -223 35 -60 35 -130 117 -153 178 -11 29 -48 192
-81 362 -34 171 -64 319 -66 331 -4 20 -15 19 -451 -67 -246 -49 -448 -90
-450 -92 -2 -1 26 -151 61 -332 81 -409 81 -414 61 -495 -20 -79 -50 -132
-107 -188 -141 -139 -420 -157 -551 -35 l-26 25 -21 -40 c-64 -125 -212 -198
-385 -190 -108 5 -180 35 -256 108 -82 77 -91 106 -179 556 -45 224 -80 409
-78 410 1 1 46 11 99 22 89 17 98 18 102 3 3 -9 37 -180 76 -381 76 -390 91
-437 155 -485 52 -40 106 -49 177 -29 106 30 158 101 158 218 0 27 -32 210
-71 408 -38 198 -68 362 -65 365 7 7 188 44 193 39 2 -2 35 -162 73 -356 38
-194 77 -375 86 -402 19 -59 75 -125 121 -145 39 -16 108 -17 154 -2 86 29
142 109 142 203 0 28 -33 217 -73 419 -40 202 -71 369 -69 371 4 3 2444 483
2466 485 6 0 16 -20 22 -46z m-3911 -578 c4 -3 252 -1270 252 -1287 0 -10 -28
-20 -96 -32 -52 -10 -97 -17 -99 -14 -4 4 -275 1376 -275 1394 0 8 36 1 108
-23 59 -20 108 -37 110 -38z m2378 -149 c29 -15 71 -48 95 -72 38 -38 41 -46
29 -58 -8 -8 -100 -87 -205 -176 l-190 -161 -33 38 c-17 21 -31 43 -30 49 2 6
68 67 147 134 141 121 143 123 120 136 -53 30 -93 34 -154 18 -77 -20 -117
-51 -151 -119 -23 -48 -26 -64 -22 -119 7 -83 47 -159 106 -200 34 -24 56 -31
108 -34 143 -9 225 63 249 219 5 36 6 36 61 43 30 3 60 3 66 0 6 -4 9 -31 5
-70 -9 -122 -86 -227 -205 -282 -81 -37 -204 -42 -283 -13 -154 58 -234 179
-234 351 1 156 74 264 222 326 50 21 70 24 153 21 82 -2 102 -7 146 -31z"/>
</g>
</svg>
