<?xml version="1.0" standalone="no"?>
<!DOCTYPE svg PUBLIC "-//W3C//DTD SVG 20010904//EN"
 "http://www.w3.org/TR/2001/REC-SVG-20010904/DTD/svg10.dtd">
<svg version="1.0" xmlns="http://www.w3.org/2000/svg"
 width="512.000000pt" height="512.000000pt" viewBox="0 0 512.000000 512.000000"
 preserveAspectRatio="xMidYMid meet">
<metadata>
Created by potrace 1.11, written by Peter Selinger 2001-2013
</metadata>
<g transform="translate(0.000000,512.000000) scale(0.100000,-0.100000)"
fill="#000000" stroke="none">
<path d="M2457 4874 c-1 -1 -38 -4 -82 -8 -100 -7 -156 -14 -222 -27 -29 -6
-54 -10 -55 -10 -13 3 -245 -65 -324 -94 -97 -37 -280 -122 -359 -167 -376
-218 -711 -574 -901 -958 -45 -91 -111 -244 -119 -275 -1 -5 -5 -17 -8 -25
-33 -83 -79 -286 -104 -460 -9 -62 -9 -483 0 -545 71 -488 236 -862 536 -1220
45 -52 245 -249 283 -277 20 -15 43 -35 52 -43 39 -40 277 -189 388 -243 240
-118 432 -177 717 -221 117 -18 465 -22 576 -7 366 51 688 167 972 351 75 49
186 128 203 145 3 3 40 36 84 74 43 38 103 97 135 130 31 33 63 67 73 77 41
43 194 253 228 313 10 18 24 44 32 57 7 13 18 31 25 39 6 8 13 20 14 25 3 11
45 102 59 125 30 53 117 302 135 390 2 8 9 38 15 65 26 111 34 168 45 310 6
72 10 330 5 330 -1 0 -3 27 -6 60 -2 33 -6 74 -9 90 -14 92 -18 116 -32 180
-40 189 -109 389 -176 515 -16 30 -29 56 -28 58 2 3 -43 83 -75 134 -13 21
-24 40 -24 43 0 3 -5 11 -10 18 -6 7 -36 48 -67 92 -150 215 -367 424 -602
580 -106 70 -309 178 -406 214 -33 13 -69 27 -80 31 -21 9 -87 30 -170 54 -98
29 -278 61 -400 72 -60 5 -313 12 -318 8z m1233 -1164 c12 -58 23 -114 25
-125 5 -31 23 -117 28 -141 3 -12 8 -37 11 -55 3 -19 7 -43 10 -54 2 -11 9
-53 17 -93 7 -41 18 -76 25 -79 8 -3 27 1 43 8 24 11 34 27 55 89 15 42 33 77
39 77 7 0 25 3 41 7 25 6 28 5 22 -11 -4 -10 -16 -46 -28 -81 -11 -34 -26 -69
-34 -76 -11 -12 -8 -15 20 -20 49 -9 76 -49 90 -136 3 -19 8 -45 10 -56 4 -18
-2 -23 -27 -28 -36 -7 -44 1 -53 64 -13 89 -37 107 -120 90 -30 -6 -52 -15
-49 -20 2 -4 7 -25 11 -45 3 -21 8 -46 10 -56 15 -67 17 -62 -28 -73 -25 -6
-28 -3 -39 36 -6 24 -13 58 -15 77 -3 19 -9 55 -15 80 -6 25 -13 60 -16 76 -2
17 -8 46 -13 65 -5 19 -12 58 -16 85 -3 28 -8 53 -10 57 -4 6 -29 129 -40 197
-7 39 -9 51 -22 111 -16 67 -25 136 -17 129 3 -4 18 -4 33 1 15 4 28 7 29 6 1
-1 11 -49 23 -106z m718 -343 c34 -23 67 -80 76 -132 3 -16 11 -59 18 -95 19
-104 18 -113 -18 -117 -29 -4 -32 -1 -40 34 -4 21 -9 45 -10 53 -4 37 -26 137
-35 161 -20 50 -119 75 -178 45 -92 -48 -87 -207 8 -249 59 -26 122 -12 155
35 16 23 18 21 30 -34 5 -22 0 -31 -26 -51 -40 -30 -69 -39 -120 -39 -103 2
-205 125 -192 234 6 55 9 64 29 94 31 48 89 83 149 91 16 2 31 5 33 7 9 8 90
-17 121 -37z m-2636 18 c64 -14 152 -68 213 -129 81 -82 127 -180 143 -301 31
-243 -131 -474 -368 -522 -47 -9 -168 -9 -235 1 -155 23 -420 144 -567 258
-33 26 -38 27 -39 11 0 -10 -1 -60 -2 -111 -2 -92 -2 -93 -20 -70 -10 13 -23
30 -30 38 -58 74 -307 409 -307 413 0 3 10 4 23 2 12 -2 94 -7 182 -10 88 -4
189 -8 225 -10 36 -1 85 -3 109 -4 l44 -1 -81 -61 c-45 -33 -82 -62 -82 -64 0
-2 12 -10 28 -17 15 -8 61 -33 103 -55 181 -99 382 -162 502 -157 281 10 397
144 342 394 -16 71 -35 108 -82 157 -56 59 -123 86 -208 85 -66 0 -141 -20
-173 -47 -45 -36 -68 -66 -93 -119 -25 -56 -28 -69 -24 -156 3 -102 8 -136 25
-200 6 -23 9 -45 5 -48 -6 -6 -86 20 -144 47 -41 19 -57 68 -65 211 -7 109 44
245 124 333 100 110 293 166 452 132z m1778 -5 c13 0 21 -34 14 -54 -12 -30
-39 -37 -63 -15 -11 11 -21 26 -21 34 0 20 31 47 47 41 8 -3 18 -6 23 -6z
m-290 -131 c12 -48 14 -50 39 -44 14 4 37 9 51 11 14 3 33 7 43 10 9 3 17 4
17 2 0 -2 4 -17 9 -35 l9 -32 -56 -11 c-99 -20 -92 -6 -66 -133 15 -71 30
-116 41 -124 15 -12 36 -11 104 3 21 4 28 1 33 -18 3 -13 6 -28 6 -35 0 -15
-104 -37 -148 -30 -39 7 -77 46 -87 91 -4 17 -9 36 -10 41 -2 6 -5 26 -8 45
-4 19 -13 69 -22 110 -36 163 -37 183 -16 192 38 16 49 9 61 -43z m315 -1 c3
-3 8 -16 10 -29 3 -13 19 -97 36 -186 18 -90 31 -165 28 -167 -2 -2 -18 -7
-35 -10 -30 -7 -32 -5 -38 26 -3 18 -8 44 -11 58 -3 14 -7 39 -10 55 -3 17
-10 50 -15 75 -35 160 -36 177 -13 182 22 5 41 4 48 -4z m-1320 -145 c9 -49
18 -95 20 -104 7 -35 57 -285 61 -304 18 -84 17 -90 -10 -93 -14 -1 -30 -3
-37 -4 -6 -2 -13 6 -14 17 -1 11 -5 34 -8 50 -4 17 -9 46 -12 65 -3 19 -8 43
-11 52 -5 19 -12 49 -19 93 -3 17 -8 44 -12 60 -3 17 -7 37 -9 45 -1 8 -9 51
-18 95 -21 103 -21 103 12 108 15 2 30 5 33 6 4 0 14 -38 24 -86z m912 30 c3
-24 0 -33 -11 -34 -9 -1 -19 -2 -23 -3 -7 -2 -38 -7 -108 -18 -64 -10 -111
-27 -113 -42 -6 -29 16 -43 76 -51 109 -13 127 -17 157 -34 62 -35 65 -139 6
-174 -28 -16 -143 -44 -256 -62 -11 -2 -44 -8 -74 -14 -29 -6 -55 -11 -56 -11
-3 0 -24 100 -30 145 -18 122 -59 170 -144 166 -83 -4 -132 -61 -127 -149 3
-47 8 -59 40 -90 32 -33 41 -36 91 -36 49 0 57 3 85 34 16 18 30 32 31 29 4
-23 8 -40 13 -57 5 -15 -1 -26 -26 -45 -77 -58 -179 -53 -243 12 -50 51 -62
76 -71 151 -6 48 13 109 48 152 31 37 100 62 174 63 63 0 75 -3 108 -29 40
-30 72 -89 81 -147 2 -19 9 -51 14 -71 5 -20 6 -39 3 -42 -10 -11 24 -6 154
20 140 28 163 39 145 72 -10 20 -81 42 -134 42 -80 0 -147 50 -147 109 0 79
49 107 240 137 19 3 37 8 40 10 2 3 15 4 29 2 20 -2 26 -10 28 -35z m1404
-263 c4 -19 5 -38 1 -42 -4 -3 -56 -16 -117 -27 -60 -12 -121 -23 -135 -26
-14 -3 -38 -8 -55 -11 -16 -4 -37 -7 -45 -9 -8 -1 -40 -7 -70 -13 -30 -6 -66
-14 -80 -16 -14 -3 -36 -7 -50 -10 -14 -3 -50 -10 -80 -16 -54 -10 -85 -16
-125 -24 -11 -3 -58 -12 -105 -21 -47 -8 -95 -18 -106 -20 l-21 -5 18 -87 c10
-49 22 -108 25 -133 3 -25 10 -55 15 -67 5 -13 7 -23 4 -23 -2 0 0 -14 5 -32
5 -17 12 -50 15 -72 21 -145 76 -228 160 -243 22 -4 43 -6 46 -6 4 1 18 4 33
7 145 26 187 243 66 344 -51 43 -148 46 -212 6 -24 -14 -49 -33 -55 -42 -11
-13 -13 -13 -14 -1 0 8 -2 21 -5 29 -18 68 -18 68 22 92 22 13 41 23 44 23 3
0 11 4 19 9 7 5 44 11 80 14 57 4 75 1 122 -21 110 -53 167 -145 167 -271 0
-106 -39 -184 -120 -239 -111 -74 -258 -63 -351 27 -54 54 -80 112 -101 231
-3 17 -8 41 -11 55 -3 14 -8 39 -11 55 -3 17 -11 62 -19 100 -8 39 -16 81 -19
95 -2 14 -6 36 -9 50 -3 14 -8 37 -12 53 -6 32 13 33 -220 -15 -82 -16 -163
-32 -180 -34 -16 -3 -50 -9 -75 -15 -25 -5 -56 -12 -70 -14 -14 -3 -36 -7 -50
-10 -14 -2 -40 -7 -59 -10 -46 -8 -73 -23 -64 -38 4 -6 8 -20 9 -32 2 -11 16
-88 33 -171 16 -82 33 -166 36 -185 3 -19 8 -43 12 -54 14 -46 18 -161 8 -198
-43 -147 -169 -239 -330 -239 -71 0 -122 14 -179 50 -35 22 -40 23 -48 7 -77
-136 -284 -200 -432 -132 -51 24 -136 101 -136 124 0 6 -6 18 -13 25 -12 12
-35 103 -57 228 -11 61 -16 87 -29 140 -5 25 -12 59 -15 75 -3 17 -14 77 -25
135 -11 58 -18 106 -17 107 4 4 109 25 135 26 14 1 25 -4 27 -13 1 -8 10 -51
19 -94 8 -44 18 -93 21 -110 2 -17 7 -38 9 -46 3 -8 14 -65 26 -125 11 -61 22
-121 25 -135 28 -146 78 -203 178 -202 103 1 167 69 167 175 0 29 -12 111 -26
182 -15 72 -29 141 -31 155 -2 14 -7 39 -11 55 -9 40 -8 34 -18 90 -4 28 -9
55 -11 60 -1 6 -5 26 -9 46 -7 40 -13 36 95 55 14 3 33 7 43 10 9 3 17 2 18
-3 0 -4 2 -15 4 -23 6 -28 54 -265 65 -325 11 -58 16 -82 24 -135 3 -14 5 -25
6 -25 1 0 4 -13 6 -30 12 -79 62 -158 112 -178 94 -38 205 13 230 107 9 32 8
100 -2 133 -3 10 -8 34 -11 53 -3 19 -13 69 -22 110 -8 41 -18 86 -20 100 -4
21 -11 54 -38 190 -1 8 -6 33 -9 56 l-7 40 118 22 c65 12 129 24 143 27 14 3
39 8 55 10 17 3 38 8 48 11 11 3 29 7 40 9 23 3 127 22 165 30 43 10 114 24
152 31 8 1 29 5 45 8 93 19 189 38 213 42 15 2 47 9 72 14 25 6 54 12 65 14
67 12 193 37 210 40 20 5 207 41 255 50 14 2 70 14 125 25 126 25 151 30 195
37 19 3 37 8 40 10 2 3 13 4 24 2 14 -2 22 -14 27 -38z m-3199 -430 l77 -23
10 -46 c6 -25 13 -55 14 -66 2 -11 7 -31 10 -45 4 -14 8 -38 11 -55 4 -26 31
-164 92 -470 9 -44 18 -89 19 -100 2 -11 9 -45 15 -75 6 -30 13 -68 16 -85 2
-16 9 -45 14 -62 4 -18 5 -35 1 -37 -8 -6 -50 -14 -100 -21 -18 -3 -37 -7 -41
-10 -5 -3 -11 -2 -14 3 -4 7 -49 221 -62 302 -3 14 -7 32 -9 40 -3 8 -7 32
-11 54 -3 21 -8 47 -10 57 -24 108 -57 274 -59 300 -1 15 -5 31 -8 35 -2 5 -8
31 -11 58 -4 27 -9 52 -11 55 -1 3 -6 22 -9 41 -10 61 -26 144 -32 164 -5 13
-2 18 7 14 8 -3 49 -16 91 -28z m1963 -144 c51 -23 115 -78 115 -99 0 -7 -12
-21 -26 -32 -26 -20 -48 -38 -99 -83 -16 -15 -67 -57 -112 -95 -88 -73 -93
-73 -124 -14 -10 17 -8 24 12 40 13 10 50 42 82 70 32 28 74 62 92 76 19 14
33 30 32 35 -2 5 -20 15 -41 24 -81 32 -196 -25 -222 -110 -23 -75 -4 -157 50
-213 33 -35 50 -45 89 -50 115 -17 211 57 219 168 1 20 7 37 13 38 5 0 29 3
53 5 l42 4 0 -49 c0 -95 -62 -188 -160 -237 -74 -38 -192 -40 -258 -6 -108 57
-164 152 -164 278 -1 116 91 235 202 262 95 24 130 22 205 -12z"/>
</g>
</svg>
