<?xml version="1.0" encoding="UTF-8"?>
<!DOCTYPE svg PUBLIC "-//W3C//DTD SVG 1.1//EN" "http://www.w3.org/Graphics/SVG/1.1/DTD/svg11.dtd">
<!-- Creator: CorelDRAW X6 -->
<svg xmlns="http://www.w3.org/2000/svg" xml:space="preserve" width="0.48611in" height="0.416661in" version="1.1" style="shape-rendering:geometricPrecision; text-rendering:geometricPrecision; image-rendering:optimizeQuality; fill-rule:evenodd; clip-rule:evenodd"
viewBox="0 0 486 417"
 xmlns:xlink="http://www.w3.org/1999/xlink">
 <defs>
  <style type="text/css">
   <![CDATA[
    .fil0 {fill:#FFDC73}
   ]]>
  </style>
 </defs>
 <g id="Background">
  <metadata id="CorelCorpID_0Corel-Layer"/>
  <path class="fil0" d="M445 2l-21 4 -42 8 43 217c4,22 2,41 -7,56 -9,15 -23,24 -41,28 -21,4 -39,1 -53,-10 -14,-11 -24,-30 -29,-59l-41 -207 -62 12 41 207c6,28 4,50 -6,65 -9,16 -24,25 -45,29 -18,4 -34,0 -48,-11 -14,-11 -23,-27 -27,-49l-43 -217 -62 12 46 232c6,32 23,57 51,76 28,18 59,24 93,18 20,-4 38,-12 54,-24 16,-12 28,-27 35,-45 15,15 32,24 51,28 19,5 38,5 59,1 35,-7 62,-24 81,-51 18,-27 25,-57 18,-90l-39 -199 -6 -32z"/>
 </g>
</svg>
